<?xml version="1.0" encoding="UTF-8"?>
<svg width="25px" height="25px" viewBox="0 0 25 25" version="1.1" xmlns="http://www.w3.org/2000/svg" xmlns:xlink="http://www.w3.org/1999/xlink">
    <!-- Generator: Sketch 61 (89581) - https://sketch.com -->
    <title>Group</title>
    <desc>Created with Sketch.</desc>
    <g id="Screens-+-symbols" stroke="none" stroke-width="1" fill="none" fill-rule="evenodd">
        <g id="00_0.-Storefront-Home-sort-dropdown" transform="translate(-1063.000000, -258.000000)" fill="#000000">
            <g id="Group" transform="translate(1063.000000, 258.000000)">
                <path d="M0.703930131,1.37931034 C0.32489083,1.37931034 0,1.10344828 0,0.717241379 C0,0.331034483 0.32489083,0 0.703930131,0 L2.22008734,0 C3.89868996,0 5.36069869,1.26896552 5.63144105,2.97931034 L5.84803493,4.74482759 L24.8,4.68965517 L21.8218341,15.6137931 C21.6052402,16.3862069 20.8471616,16.8827586 20.089083,16.8827586 L7.58078603,16.8275862 L7.79737991,18.3724138 C7.90567686,18.9793103 8.3930131,19.3655172 8.93449782,19.3655172 L20.7930131,19.3655172 C21.1720524,19.3655172 21.4969432,19.6965517 21.4969432,20.0827586 C21.4969432,20.4689655 21.1720524,20.8 20.7930131,20.8 L8.93449782,20.8 C7.68908297,20.8 6.60611354,19.862069 6.44366812,18.5931034 L4.22358079,3.2 C4.11528384,2.15172414 3.2489083,1.37931034 2.22008734,1.37931034 L0.703930131,1.37931034 Z" id="Path" fill-rule="nonzero"></path>
                <path d="M9.23174603,20.8 C10.3111111,20.8 11.2,21.6888889 11.2,22.831746 C11.2,23.9111111 10.3111111,24.8 9.23174603,24.8 C8.08888889,24.8 7.2,23.9111111 7.2,22.831746 C7.2,21.6888889 8.08888889,20.8 9.23174603,20.8 Z" id="Path"></path>
                <path d="M19.631746,20.8 C20.7111111,20.8 21.6,21.6888889 21.6,22.831746 C21.6,23.9111111 20.7111111,24.8 19.631746,24.8 C18.4888889,24.8 17.6,23.9111111 17.6,22.831746 C17.6,21.6888889 18.4888889,20.8 19.631746,20.8 Z" id="Path"></path>
            </g>
        </g>
    </g>
</svg>